<svg width="181" height="32" viewBox="0 0 181 32" fill="none" xmlns="http://www.w3.org/2000/svg">
<path d="M14.699 31.5926H12.3361C10.2394 31.5926 8.74012 31.3753 7.8384 30.9407C7.31693 30.6909 6.9041 30.403 6.5999 30.077C5.79596 29.2405 5.3777 27.3936 5.34511 24.5364V8.37073H0V6.08929H8.31099V24.3897C8.31099 26.5517 8.50654 27.8771 8.89765 28.366C9.29961 28.8548 9.79936 29.1373 10.3969 29.2133C10.9944 29.2785 11.6028 29.3111 12.222 29.3111H14.8457L14.699 31.5926Z" fill="#79F67A"/>
<path d="M28.3095 27.6V23.0372L25.8814 23.3794C24.1866 23.6184 23.0133 23.8574 22.3614 24.0964C20.9057 24.6505 20.1778 25.5793 20.1778 26.883C20.1778 27.7847 20.4385 28.5018 20.96 29.0341C21.4815 29.5664 22.1985 29.8326 23.1111 29.8326C25.1209 29.8326 26.8537 29.0884 28.3095 27.6ZM28.3095 19.2728C28.3095 16.7197 27.2285 15.4432 25.0666 15.4432C24.0454 15.4432 22.9155 15.5627 21.677 15.8017C20.4494 16.0407 19.5857 16.2689 19.0859 16.4862L18.3852 14.3025C20.6341 13.5529 22.7471 13.1781 24.7244 13.1781C26.7016 13.1781 28.2878 13.6289 29.4828 14.5306C30.6779 15.4323 31.2754 16.8229 31.2754 18.7024V31.5926H28.8147L28.4236 29.523C27.7283 30.2291 26.832 30.8212 25.7347 31.2992C24.6483 31.7664 23.5837 32 22.5407 32C21.0306 32 19.7758 31.5491 18.7763 30.6474C17.7768 29.7348 17.2771 28.4529 17.2771 26.8015C17.2771 25.1393 17.9289 23.9226 19.2326 23.1512C20.1126 22.608 21.0469 22.2386 22.0355 22.0431C23.035 21.8367 24.3333 21.6357 25.9303 21.4401L28.3095 21.1631V19.2728Z" fill="#79F67A"/>
<path d="M48.1125 25.7912C48.1125 29.9304 45.8093 32 41.2029 32C36.5966 32 34.2934 29.9304 34.2934 25.7912V13.7158H37.2593V26.0519C37.2593 27.323 37.5744 28.2519 38.2045 28.8385C38.8346 29.4252 39.8341 29.7185 41.2029 29.7185C42.5718 29.7185 43.5713 29.4252 44.2014 28.8385C44.8315 28.2519 45.1466 27.323 45.1466 26.0519V13.7158H48.1125V25.7912Z" fill="#79F67A"/>
<path d="M61.5926 10.75C60.8538 9.83738 59.9684 9.38109 58.9363 9.38109C57.9042 9.38109 57.0188 9.83738 56.2801 10.75C55.5413 11.6517 54.9981 12.8467 54.6504 14.3351C54.3028 15.8234 54.129 17.5237 54.129 19.4357C54.129 21.3478 54.3028 23.048 54.6504 24.5364C54.9981 26.0248 55.5413 27.2198 56.2801 28.1215C57.0188 29.0232 57.9042 29.4741 58.9363 29.4741C59.9684 29.4741 60.8538 29.0232 61.5926 28.1215C62.3313 27.2198 62.8745 26.0248 63.2222 24.5364C63.5698 23.048 63.7436 21.3478 63.7436 19.4357C63.7436 17.5237 63.5698 15.8234 63.2222 14.3351C62.8745 12.8467 62.3313 11.6517 61.5926 10.75ZM62.5051 30.9896C61.4622 31.6632 60.2726 32 58.9363 32C57.6 32 56.4104 31.6632 55.3675 30.9896C54.3245 30.3052 53.4826 29.3763 52.8416 28.203C51.5705 25.8455 50.9349 22.9176 50.9349 19.4194C50.9349 15.0956 51.7878 11.7983 53.4934 9.52775C54.091 8.72381 54.8514 8.08284 55.7749 7.60482C56.7092 7.1268 57.763 6.8878 58.9363 6.8878C60.1096 6.8878 61.1634 7.1268 62.0977 7.60482C63.7925 8.47394 65.0202 9.98947 65.7807 12.1514C66.552 14.3025 66.9377 16.7252 66.9377 19.4194C66.9377 22.9176 66.3021 25.8455 65.031 28.203C64.3901 29.3763 63.5481 30.3052 62.5051 30.9896Z" fill="#79F67A"/>
<path d="M82.5688 31.5926H80.2059C78.1092 31.5926 76.6099 31.3753 75.7082 30.9407C75.1867 30.6909 74.7739 30.403 74.4697 30.077C73.6658 29.2405 73.2475 27.3936 73.2149 24.5364V8.37073H67.8698V6.08929H76.1808V24.3897C76.1808 26.5517 76.3764 27.8771 76.7675 28.366C77.1694 28.8548 77.6692 29.1373 78.2667 29.2133C78.8642 29.2785 79.4726 29.3111 80.0919 29.3111H82.7155L82.5688 31.5926Z" fill="#79F67A"/>
<path d="M86.4995 15.9973V13.7158H94.566V29.3111H99.683V31.5926H85.9291V29.3111H91.6001V15.9973H86.4995Z" fill="#79F67A"/>
<path d="M109.122 28.5126C110.067 25.9378 111.81 21.0056 114.353 13.7158H117.644L110.686 31.5926H107.378L100.468 13.7158H103.891L109.122 28.5126Z" fill="#79F67A"/>
<path d="M122.422 30.7615C121.173 29.9249 120.244 28.8059 119.636 27.4045C119.038 25.9922 118.74 24.4006 118.74 22.6298C118.74 20.8589 119.017 19.2728 119.571 17.8713C120.136 16.459 120.972 15.3237 122.08 14.4654C123.199 13.5963 124.427 13.1618 125.763 13.1618C128.284 13.1618 130.131 14.0255 131.304 15.7528C132.477 17.4802 133.064 19.6041 133.064 22.1246V23.1186H121.738C121.803 24.9547 122.26 26.5136 123.107 27.7956C123.965 29.0775 125.247 29.7185 126.953 29.7185C128.094 29.6099 129.685 28.9906 131.728 27.8608L132.705 29.8815C131.293 31.2938 129.365 32 126.92 32C125.171 32 123.672 31.5871 122.422 30.7615ZM130.228 20.9513C130.011 17.2901 128.729 15.4595 126.382 15.4595C123.732 15.4595 122.216 17.2901 121.836 20.9513H130.228Z" fill="#79F67A"/>
<path d="M141.231 9.00628V7.39297C141.231 7.00187 141.449 6.65965 141.883 6.36632C142.329 6.06213 142.769 5.91003 143.203 5.91003C143.638 5.91003 144.072 6.06213 144.507 6.36632C144.952 6.65965 145.175 7.00187 145.175 7.39297V9.00628C145.175 9.39738 144.952 9.74503 144.507 10.0492C144.072 10.3426 143.638 10.4892 143.203 10.4892C142.769 10.4892 142.329 10.3426 141.883 10.0492C141.449 9.74503 141.231 9.39738 141.231 9.00628ZM136.62 15.9973V13.7158H144.686V29.3111H149.803V31.5926H136.049V29.3111H141.72V15.9973H136.62Z" fill="#79F67A"/>
<path d="M155.586 31.5926H152.62V13.7158H155.048L155.293 17.0239C156.021 15.7637 156.977 14.8077 158.161 14.1558C159.345 13.504 160.687 13.1781 162.186 13.1781H163.62V15.9321H161.762C159.861 15.9321 158.356 16.4101 157.248 17.3661C156.14 18.3113 155.586 19.7399 155.586 21.652V31.5926Z" fill="#79F67A"/>
<path d="M177.279 27.6V23.0372L174.851 23.3794C173.156 23.6184 171.983 23.8574 171.331 24.0964C169.876 24.6505 169.148 25.5793 169.148 26.883C169.148 27.7847 169.408 28.5018 169.93 29.0341C170.451 29.5664 171.168 29.8326 172.081 29.8326C174.091 29.8326 175.824 29.0884 177.279 27.6ZM177.279 19.2728C177.279 16.7197 176.198 15.4432 174.036 15.4432C173.015 15.4432 171.885 15.5627 170.647 15.8017C169.419 16.0407 168.556 16.2689 168.056 16.4862L167.355 14.3025C169.604 13.5529 171.717 13.1781 173.694 13.1781C175.671 13.1781 177.258 13.6289 178.453 14.5306C179.648 15.4323 180.245 16.8229 180.245 18.7024V31.5926H177.785L177.393 29.523C176.698 30.2291 175.802 30.8212 174.705 31.2992C173.618 31.7664 172.553 32 171.511 32C170 32 168.746 31.5491 167.746 30.6474C166.747 29.7348 166.247 28.4529 166.247 26.8015C166.247 25.1393 166.899 23.9226 168.202 23.1512C169.082 22.608 170.017 22.2386 171.005 22.0431C172.005 21.8367 173.303 21.6357 174.9 21.4401L177.279 21.1631V19.2728Z" fill="#79F67A"/>
<path fill-rule="evenodd" clip-rule="evenodd" d="M95.7837 1.26868C89.346 4.89937 89.9939 9.05989 91.8408 10.099C91.6056 8.69111 92.5741 5.77078 93.8653 4.17167C92.3528 6.04487 91.9532 9.21258 93.134 10.5653C95.0333 10.9066 95.0145 8.82374 94.9928 6.41442C94.9762 4.57975 94.958 2.55576 95.7837 1.26868Z" fill="#2A464F"/>
</svg>
